<?xml version="1.0" encoding="utf-8"?>
<svg viewBox="0 0 500 500" xmlns="http://www.w3.org/2000/svg">
  <g id="color" transform="matrix(1.282495, 0, 0, 1.448534, 394.285742, 75.018464)" style="">
    <path fill="#d0cfce" stroke="none" d="M -242.126 85.977 C -242.356 88.26 -244.485 90.107 -247.121 90.353 C -279.082 93.328 -303.664 120.671 -303.664 153.954 C -303.664 189.224 -275.514 221.425 -240.788 221.425 L -1.079 221.425 C 7.049 221.238 13.781 220.628 20.534 218.644 C 39.113 210.717 68 184.368 68 150.327 C 68 114.608 39.596 85.369 3.65 82.995 C 0.901 82.814 -1.33 81.141 -1.854 78.801 C -9.884 42.973 -46.927 16.049 -90.722 16.049 C -119.184 16.049 -144.538 27.245 -161.003 45.056 C -162.611 46.796 -165.312 47.594 -167.687 46.729 C -174.023 44.42 -180.714 43.303 -188.2 43.303 C -216.492 43.303 -239.715 62.063 -242.126 85.977 Z" style=""/>
  </g>
  <g id="hair" transform="matrix(1, 0, 0, 1, 388.791082, 215.023136)"/>
  <g id="skin" transform="matrix(1, 0, 0, 1, 388.791082, 215.023136)"/>
  <g id="skin-shadow" transform="matrix(1, 0, 0, 1, 388.791082, 215.023136)"/>
  <g id="line" transform="matrix(7.330344, 0, 0, 7.387136, -16.967987, -21.322159)" style="">
    <path fill="none" stroke="#000000" stroke-linecap="round" stroke-linejoin="round" stroke-miterlimit="10" stroke-width="2" d="M 58.217 55.885 C 62.916 55.54 68 48.702 68 42.618 C 68 35.539 63.109 29.745 56.919 29.274 C 56.446 29.238 56.062 28.907 55.971 28.443 C 54.589 21.342 48.21 16.007 40.668 16.007 C 35.767 16.007 31.401 18.226 28.566 21.755 C 28.289 22.1 27.824 22.258 27.415 22.087 C 26.324 21.629 25.172 21.408 23.883 21.408 C 19.011 21.408 15.012 25.126 14.597 29.865 C 14.557 30.318 14.191 30.684 13.737 30.733 C 8.233 31.322 4 36.741 4 43.337 C 4 50.327 8.848 55.993 14.827 55.993 L 57.916 55.872"/>
    <path fill="none" stroke="#000000" stroke-linecap="round" stroke-linejoin="round" stroke-width="2" d="M31.686,32.062 c-1.2083,0.9992-2.7458,1.5119-4.312,1.438c-1.5664,0.0745-3.1043-0.4379-4.313-1.437"/>
    <path fill="none" stroke="#000000" stroke-linecap="round" stroke-linejoin="round" stroke-width="2" d="M48.939,32.062 c-1.2083,0.9992-2.7458,1.5119-4.312,1.438c-1.5664,0.0745-3.1043-0.4379-4.313-1.437"/>
    <path fill="none" stroke="#000000" stroke-linecap="round" stroke-linejoin="round" stroke-miterlimit="10" stroke-width="2" d="M 39.611 45.333 C 41.268 45.333 42.611 44.195 42.611 42.792 C 42.611 41.739 41.856 40.836 40.779 40.45 C 40.42 40.321 38.615 39.763 38.2 39.763"/>
    <path fill="none" stroke="#000000" stroke-linecap="round" stroke-linejoin="round" stroke-miterlimit="10" stroke-width="2" d="M 38.264 39.755 C 33.407 37.714 28.199 44.743 32.804 45.403 C 34.204 45.604 39.966 45.228 39.596 45.333"/>
    <path fill="none" stroke="#000000" stroke-linecap="round" stroke-linejoin="round" stroke-miterlimit="10" stroke-width="2" d="M 54.126 39.612 C 62.718 40.7 57.833 47.694 55.351 48.177"/>
    <path fill="none" stroke="#000000" stroke-linecap="round" stroke-linejoin="round" stroke-miterlimit="10" stroke-width="2" d="M 17.688 38.942 C 14.063 39.448 10.106 44.391 17.952 47.576"/>
  </g>
</svg>