<?xml version="1.0" encoding="utf-8"?>
<svg viewBox="0 0 500 500" xmlns="http://www.w3.org/2000/svg">
  <g id="line-supplement" transform="matrix(9.756236, 0, 0, 9.685287, -103.268304, -98.670312)" style="">
    <polyline points="33.2 33.2 48 24 38.8 38.8"/>
  </g>
  <g id="color" transform="matrix(9.756236, 0, 0, 9.685287, -103.268304, -98.670312)" style="">
    <g>
      <circle cx="36" cy="36" r="24" fill="#fcea2b"/>
    </g>
    <path d="M53,19A24.0417,24.0417,0,0,1,36,60a24.302,24.302,0,0,1-17-7" style="fill: rgb(252, 234, 43);"/>
    <polyline fill="#fff" points="33.2 33.2 24 48 38.8 38.8"/>
    <polyline fill="#ea5a47" points="33.2 33.2 48 24 38.8 38.8"/>
  </g>
  <g id="line" transform="matrix(9.756236, 0, 0, 9.685287, -103.268304, -98.670312)" style="">
    <circle cx="36" cy="36" r="24" fill="none" stroke="#000" stroke-linecap="round" stroke-linejoin="round" stroke-width="2"/>
    <polyline fill="none" stroke="#000" stroke-linecap="round" stroke-linejoin="round" stroke-width="2" points="33.2 33.2 24 48 38.8 38.8"/>
    <polyline fill="none" stroke="#000" stroke-linecap="round" stroke-linejoin="round" stroke-width="2" points="33.2 33.2 48 24 38.8 38.8"/>
  </g>
</svg>