<?xml version="1.0" encoding="utf-8"?>
<svg viewBox="0 0 500 500" xmlns="http://www.w3.org/2000/svg">
  <g id="color" transform="matrix(8.949396, 0, 0, 8.131186, -80.311456, 21.237717)" style="">
    <path fill="#d0cfce" stroke="none" d="M19.2787,22.3066c-0.031,0.3535-0.3174,0.6396-0.6721,0.6775C14.307,23.4447,11,27.6783,11,32.8315 c0,5.4608,3.7871,9.8877,8.4588,9.8877h32.248C56.8393,42.7192,61,38.0409,61,32.27c0-5.5305-3.8212-10.0575-8.6569-10.4251 c-0.37-0.0281-0.67-0.2871-0.7406-0.6494c-1.0803-5.5472-6.0636-9.7159-11.9553-9.7159c-3.829,0-7.2399,1.7335-9.4549,4.4912 c-0.2164,0.2695-0.5797,0.3929-0.8992,0.2589c-0.8523-0.3575-1.7525-0.5304-2.7597-0.5304 C22.7272,15.6993,19.6031,18.604,19.2787,22.3066z"/>
  </g>
  <g id="hair" transform="matrix(4.061058, 0, 0, 3.552303, 206.71091, 211.518588)" style=""/>
  <g id="skin" transform="matrix(4.061058, 0, 0, 3.552303, 206.71091, 211.518588)" style=""/>
  <g id="skin-shadow" transform="matrix(4.061058, 0, 0, 3.552303, 206.71091, 211.518588)" style=""/>
  <g id="line" transform="matrix(8.949396, 0, 0, 8.220006, -75.968995, 17.736702)" style="">
    <path fill="none" stroke="#000000" stroke-linecap="round" stroke-linejoin="round" stroke-miterlimit="10" stroke-width="2" d="M19.2787,22.3066c-0.031,0.3535-0.3174,0.6396-0.6721,0.6775C14.307,23.4447,11,27.6783,11,32.8315 c0,5.4608,3.7871,9.8877,8.4588,9.8877h32.248C56.8393,42.7192,61,38.0409,61,32.27c0-5.5305-3.8212-10.0575-8.6569-10.4251 c-0.37-0.0281-0.67-0.2871-0.7406-0.6494c-1.0803-5.5472-6.0636-9.7159-11.9553-9.7159c-3.829,0-7.2399,1.7335-9.4549,4.4912 c-0.2164,0.2695-0.5797,0.3929-0.8992,0.2589c-0.8523-0.3575-1.7525-0.5304-2.7597-0.5304 C22.7272,15.6993,19.6031,18.604,19.2787,22.3066z"/>
  </g>
  <text style="fill: rgb(32, 160, 141); font-family: Arial, sans-serif; font-size: 150px; white-space: pre;" transform="matrix(2.107945, 0, 0, 2.070154, -240.772007, -234.287189)" x="193.238" y="325.217">?</text>
</svg>